# xmcd
#
# Track frame offsets:
#	150
#	21572
#	43757
#	63650
#	93373
#	114805
#	129507
#	153245
#	167592
#	184437
#	208290
#	226323
#	240483
#	263835
#	281973
#	291763
#	308174
#	339666
#
# Disc length: 4759 seconds
#
# Revision: 0
# Processed by: cddbd v1.5.2PL0 Copyright (c) Steve Scherf et al.
# Submitted via: EasyCDDAExtractor 12.0.4.1
#
DISCID=0d129512
DTITLE=Sky High - Blues For The Green
DYEAR=2012
DGENRE=Blues-Rock
TTITLE0=You Can't Break Me
TTITLE1=Wild Women
TTITLE2=Bluestown
TTITLE3=Rainy Day In June
TTITLE4=Back On Your Feet
TTITLE5=I'm Still Rockin'
TTITLE6=Hard Working Man
TTITLE7=Boogie For Peace
TTITLE8=Don't Turn Your Back On Me
TTITLE9=I Want You
TTITLE10=I Ain't Beggin'
TTITLE11=Evil Eye
TTITLE12=Jimi
TTITLE13=Pengablues
TTITLE14=Stompin' At The Pitz
TTITLE15=Downshift Boogie
TTITLE16=Blues For The Green
TTITLE17=Untitled
EXTD=
EXTT0=
EXTT1=
EXTT2=
EXTT3=
EXTT4=
EXTT5=
EXTT6=
EXTT7=
EXTT8=
EXTT9=
EXTT10=
EXTT11=
EXTT12=
EXTT13=
EXTT14=
EXTT15=
EXTT16=
EXTT17=
PLAYORDER=
